<?xml version="1.0"?>
<svg viewBox="0 0 2000 800" version="1.1" xmlns="http://www.w3.org/2000/svg">
<line x1="0.000000" y1="160.000000" x2="1700.000000" y2="160.000000" style="stroke:rgb(0,0,0);stroke-width:3"/>
<text x="1850.000000" y="160.000000" fill="black">Thread 0</text>
<rect class="task" x="0.000000" y="100.000000" width="1672.213989" height="120.000000" fill="red" stroke="black"/>
<g id="tip_0">
<rect x="0.000000" y="70.000000" width="200" height="30.000000" fill="white" stoke="black"/>
<text x="0.000000" y="85.000000">[Start] Time: 1986, Info: 16, From: 0
</text></g>
<line x1="0.000000" y1="320.000000" x2="1700.000000" y2="320.000000" style="stroke:rgb(0,0,0);stroke-width:3"/>
<text x="1850.000000" y="320.000000" fill="black">Thread 1</text>
<rect class="task" x="692.124817" y="260.000000" width="8.420010" height="120.000000" fill="blue" stroke="black"/>
<g id="tip_1">
<rect x="692.124817" y="230.000000" width="200" height="30.000000" fill="white" stoke="black"/>
<text x="692.124817" y="245.000000">[Sort] Time: 10, Info: 1, From: 1
</text></g>
<rect class="task" x="713.174866" y="260.000000" width="4.210005" height="120.000000" fill="blue" stroke="black"/>
<g id="tip_2">
<rect x="713.174866" y="230.000000" width="200" height="30.000000" fill="white" stoke="black"/>
<text x="713.174866" y="245.000000">[Sort] Time: 5, Info: 1, From: 1
</text></g>
<rect class="task" x="664.338806" y="260.000000" width="48.836056" height="120.000000" fill="blue" stroke="black"/>
<g id="tip_3">
<rect x="664.338806" y="230.000000" width="200" height="30.000000" fill="white" stoke="black"/>
<text x="664.338806" y="245.000000">[Sort] Time: 58, Info: 2, From: 1
</text></g>
<rect class="task" x="821.792969" y="260.000000" width="15.998019" height="120.000000" fill="blue" stroke="black"/>
<g id="tip_4">
<rect x="821.792969" y="230.000000" width="200" height="30.000000" fill="white" stoke="black"/>
<text x="821.792969" y="245.000000">[Sort] Time: 19, Info: 1, From: 1
</text></g>
<rect class="task" x="845.369019" y="260.000000" width="14.314017" height="120.000000" fill="blue" stroke="black"/>
<g id="tip_5">
<rect x="845.369019" y="230.000000" width="200" height="30.000000" fill="white" stoke="black"/>
<text x="845.369019" y="245.000000">[Sort] Time: 17, Info: 1, From: 1
</text></g>
<rect class="task" x="764.536926" y="260.000000" width="80.832092" height="120.000000" fill="blue" stroke="black"/>
<g id="tip_6">
<rect x="764.536926" y="230.000000" width="200" height="30.000000" fill="white" stoke="black"/>
<text x="764.536926" y="245.000000">[Sort] Time: 96, Info: 2, From: 1
</text></g>
<rect class="task" x="631.500732" y="260.000000" width="133.036163" height="120.000000" fill="blue" stroke="black"/>
<g id="tip_7">
<rect x="631.500732" y="230.000000" width="200" height="30.000000" fill="white" stoke="black"/>
<text x="631.500732" y="245.000000">[Sort] Time: 158, Info: 4, From: 1
</text></g>
<rect class="task" x="137.246155" y="260.000000" width="494.254578" height="120.000000" fill="blue" stroke="black"/>
<g id="tip_8">
<rect x="137.246155" y="230.000000" width="200" height="30.000000" fill="white" stoke="black"/>
<text x="137.246155" y="245.000000">[Sort] Time: 587, Info: 8, From: 0
</text></g>
<rect class="task" x="1691.579956" y="260.000000" width="8.420010" height="120.000000" fill="blue" stroke="black"/>
<g id="tip_9">
<rect x="1691.579956" y="230.000000" width="200" height="30.000000" fill="white" stoke="black"/>
<text x="1691.579956" y="245.000000">[Merge] Time: 10, Info: 2, From: 3
</text></g>
<line x1="0.000000" y1="480.000000" x2="1700.000000" y2="480.000000" style="stroke:rgb(0,0,0);stroke-width:3"/>
<text x="1850.000000" y="480.000000" fill="black">Thread 2</text>
<rect class="task" x="648.340759" y="420.000000" width="21.050024" height="120.000000" fill="green" stroke="black"/>
<g id="tip_10">
<rect x="648.340759" y="390.000000" width="200" height="30.000000" fill="white" stoke="black"/>
<text x="648.340759" y="405.000000">[Sort] Time: 25, Info: 1, From: 2
</text></g>
<rect class="task" x="692.124817" y="420.000000" width="8.420010" height="120.000000" fill="green" stroke="black"/>
<g id="tip_11">
<rect x="692.124817" y="390.000000" width="200" height="30.000000" fill="white" stoke="black"/>
<text x="692.124817" y="405.000000">[Sort] Time: 10, Info: 1, From: 2
</text></g>
<rect class="task" x="631.500732" y="420.000000" width="60.624073" height="120.000000" fill="green" stroke="black"/>
<g id="tip_12">
<rect x="631.500732" y="390.000000" width="200" height="30.000000" fill="white" stoke="black"/>
<text x="631.500732" y="405.000000">[Sort] Time: 72, Info: 2, From: 2
</text></g>
<rect class="task" x="778.850891" y="420.000000" width="4.210005" height="120.000000" fill="green" stroke="black"/>
<g id="tip_13">
<rect x="778.850891" y="390.000000" width="200" height="30.000000" fill="white" stoke="black"/>
<text x="778.850891" y="405.000000">[Sort] Time: 5, Info: 1, From: 2
</text></g>
<rect class="task" x="790.638916" y="420.000000" width="4.210005" height="120.000000" fill="green" stroke="black"/>
<g id="tip_14">
<rect x="790.638916" y="390.000000" width="200" height="30.000000" fill="white" stoke="black"/>
<text x="790.638916" y="405.000000">[Sort] Time: 5, Info: 1, From: 2
</text></g>
<rect class="task" x="745.170898" y="420.000000" width="45.468052" height="120.000000" fill="green" stroke="black"/>
<g id="tip_15">
<rect x="745.170898" y="390.000000" width="200" height="30.000000" fill="white" stoke="black"/>
<text x="745.170898" y="405.000000">[Sort] Time: 54, Info: 2, From: 2
</text></g>
<rect class="task" x="263.546295" y="420.000000" width="481.624573" height="120.000000" fill="green" stroke="black"/>
<g id="tip_16">
<rect x="263.546295" y="390.000000" width="200" height="30.000000" fill="white" stoke="black"/>
<text x="263.546295" y="405.000000">[Sort] Time: 572, Info: 4, From: 3
</text></g>
<rect class="task" x="1032.293213" y="420.000000" width="26.944031" height="120.000000" fill="green" stroke="black"/>
<g id="tip_17">
<rect x="1032.293213" y="390.000000" width="200" height="30.000000" fill="white" stoke="black"/>
<text x="1032.293213" y="405.000000">[Merge] Time: 32, Info: 2, From: 3
</text></g>
<rect class="task" x="1100.495239" y="420.000000" width="10.104012" height="120.000000" fill="green" stroke="black"/>
<g id="tip_18">
<rect x="1100.495239" y="390.000000" width="200" height="30.000000" fill="white" stoke="black"/>
<text x="1100.495239" y="405.000000">[Merge] Time: 12, Info: 2, From: 2
</text></g>
<rect class="task" x="1127.439331" y="420.000000" width="10.946012" height="120.000000" fill="green" stroke="black"/>
<g id="tip_19">
<rect x="1127.439331" y="390.000000" width="200" height="30.000000" fill="white" stoke="black"/>
<text x="1127.439331" y="405.000000">[Merge] Time: 13, Info: 2, From: 1
</text></g>
<rect class="task" x="1151.015381" y="420.000000" width="50.520058" height="120.000000" fill="green" stroke="black"/>
<g id="tip_20">
<rect x="1151.015381" y="390.000000" width="200" height="30.000000" fill="white" stoke="black"/>
<text x="1151.015381" y="405.000000">[Merge] Time: 60, Info: 2, From: 2
</text></g>
<rect class="task" x="1247.003418" y="420.000000" width="5.894007" height="120.000000" fill="green" stroke="black"/>
<g id="tip_21">
<rect x="1247.003418" y="390.000000" width="200" height="30.000000" fill="white" stoke="black"/>
<text x="1247.003418" y="405.000000">[Merge] Time: 7, Info: 8, From: 1
</text></g>
<line x1="0.000000" y1="640.000000" x2="1700.000000" y2="640.000000" style="stroke:rgb(0,0,0);stroke-width:3"/>
<text x="1850.000000" y="640.000000" fill="black">Thread 3</text>
<rect class="task" x="266.914307" y="580.000000" width="0.842001" height="120.000000" fill="yellow" stroke="black"/>
<g id="tip_22">
<rect x="266.914307" y="550.000000" width="200" height="30.000000" fill="white" stoke="black"/>
<text x="266.914307" y="565.000000">[Sort] Time: 1, Info: 1, From: 3
</text></g>
<rect class="task" x="274.492310" y="580.000000" width="0.842001" height="120.000000" fill="yellow" stroke="black"/>
<g id="tip_23">
<rect x="274.492310" y="550.000000" width="200" height="30.000000" fill="white" stoke="black"/>
<text x="274.492310" y="565.000000">[Sort] Time: 1, Info: 1, From: 3
</text></g>
<rect class="task" x="263.546295" y="580.000000" width="10.946012" height="120.000000" fill="yellow" stroke="black"/>
<g id="tip_24">
<rect x="263.546295" y="550.000000" width="200" height="30.000000" fill="white" stoke="black"/>
<text x="263.546295" y="565.000000">[Sort] Time: 13, Info: 2, From: 3
</text></g>
<rect class="task" x="409.212494" y="580.000000" width="1.684002" height="120.000000" fill="yellow" stroke="black"/>
<g id="tip_25">
<rect x="409.212494" y="550.000000" width="200" height="30.000000" fill="white" stoke="black"/>
<text x="409.212494" y="565.000000">[Sort] Time: 2, Info: 1, From: 3
</text></g>
<rect class="task" x="412.580475" y="580.000000" width="1.684002" height="120.000000" fill="yellow" stroke="black"/>
<g id="tip_26">
<rect x="412.580475" y="550.000000" width="200" height="30.000000" fill="white" stoke="black"/>
<text x="412.580475" y="565.000000">[Sort] Time: 2, Info: 1, From: 3
</text></g>
<rect class="task" x="280.386322" y="580.000000" width="132.194153" height="120.000000" fill="yellow" stroke="black"/>
<g id="tip_27">
<rect x="280.386322" y="550.000000" width="200" height="30.000000" fill="white" stoke="black"/>
<text x="280.386322" y="565.000000">[Sort] Time: 157, Info: 2, From: 3
</text></g>
<rect class="task" x="167.558197" y="580.000000" width="112.828133" height="120.000000" fill="yellow" stroke="black"/>
<g id="tip_28">
<rect x="167.558197" y="550.000000" width="200" height="30.000000" fill="white" stoke="black"/>
<text x="167.558197" y="565.000000">[Sort] Time: 134, Info: 4, From: 3
</text></g>
<rect class="task" x="28.628035" y="580.000000" width="138.930161" height="120.000000" fill="yellow" stroke="black"/>
<g id="tip_29">
<rect x="28.628035" y="550.000000" width="200" height="30.000000" fill="white" stoke="black"/>
<text x="28.628035" y="565.000000">[Sort] Time: 165, Info: 8, From: 0
</text></g>
<rect class="task" x="1035.661255" y="580.000000" width="15.156018" height="120.000000" fill="yellow" stroke="black"/>
<g id="tip_30">
<rect x="1035.661255" y="550.000000" width="200" height="30.000000" fill="white" stoke="black"/>
<text x="1035.661255" y="565.000000">[Merge] Time: 18, Info: 2, From: 3
</text></g>
<rect class="task" x="1059.237305" y="580.000000" width="1.684002" height="120.000000" fill="yellow" stroke="black"/>
<g id="tip_31">
<rect x="1059.237305" y="550.000000" width="200" height="30.000000" fill="white" stoke="black"/>
<text x="1059.237305" y="565.000000">[Merge] Time: 2, Info: 4, From: 3
</text></g>
<rect class="task" x="1087.023315" y="580.000000" width="15.156018" height="120.000000" fill="yellow" stroke="black"/>
<g id="tip_32">
<rect x="1087.023315" y="550.000000" width="200" height="30.000000" fill="white" stoke="black"/>
<text x="1087.023315" y="565.000000">[Sort] Time: 18, Info: 1, From: 3
</text></g>
<rect class="task" x="1103.863281" y="580.000000" width="0.842001" height="120.000000" fill="yellow" stroke="black"/>
<g id="tip_33">
<rect x="1103.863281" y="550.000000" width="200" height="30.000000" fill="white" stoke="black"/>
<text x="1103.863281" y="565.000000">[Sort] Time: 1, Info: 1, From: 3
</text></g>
<rect class="task" x="1068.499268" y="580.000000" width="35.364040" height="120.000000" fill="yellow" stroke="black"/>
<g id="tip_34">
<rect x="1068.499268" y="550.000000" width="200" height="30.000000" fill="white" stoke="black"/>
<text x="1068.499268" y="565.000000">[Sort] Time: 42, Info: 2, From: 3
</text></g>
<rect class="task" x="1119.019287" y="580.000000" width="8.420010" height="120.000000" fill="yellow" stroke="black"/>
<g id="tip_35">
<rect x="1119.019287" y="550.000000" width="200" height="30.000000" fill="white" stoke="black"/>
<text x="1119.019287" y="565.000000">[Sort] Time: 10, Info: 1, From: 3
</text></g>
<rect class="task" x="1129.123291" y="580.000000" width="0.842001" height="120.000000" fill="yellow" stroke="black"/>
<g id="tip_36">
<rect x="1129.123291" y="550.000000" width="200" height="30.000000" fill="white" stoke="black"/>
<text x="1129.123291" y="565.000000">[Sort] Time: 1, Info: 1, From: 3
</text></g>
<rect class="task" x="1114.809326" y="580.000000" width="14.314017" height="120.000000" fill="yellow" stroke="black"/>
<g id="tip_37">
<rect x="1114.809326" y="550.000000" width="200" height="30.000000" fill="white" stoke="black"/>
<text x="1114.809326" y="565.000000">[Sort] Time: 17, Info: 2, From: 3
</text></g>
<rect class="task" x="1063.447266" y="580.000000" width="51.362061" height="120.000000" fill="yellow" stroke="black"/>
<g id="tip_38">
<rect x="1063.447266" y="550.000000" width="200" height="30.000000" fill="white" stoke="black"/>
<text x="1063.447266" y="565.000000">[Sort] Time: 61, Info: 4, From: 1
</text></g>
<rect class="task" x="1144.279297" y="580.000000" width="7.578009" height="120.000000" fill="yellow" stroke="black"/>
<g id="tip_39">
<rect x="1144.279297" y="550.000000" width="200" height="30.000000" fill="white" stoke="black"/>
<text x="1144.279297" y="565.000000">[Merge] Time: 9, Info: 4, From: 2
</text></g>
<rect class="task" x="1154.383301" y="580.000000" width="1.684002" height="120.000000" fill="yellow" stroke="black"/>
<g id="tip_40">
<rect x="1154.383301" y="550.000000" width="200" height="30.000000" fill="white" stoke="black"/>
<text x="1154.383301" y="565.000000">[Merge] Time: 2, Info: 8, From: 3
</text></g>
<rect class="task" x="1191.431396" y="580.000000" width="0.842001" height="120.000000" fill="yellow" stroke="black"/>
<g id="tip_41">
<rect x="1191.431396" y="550.000000" width="200" height="30.000000" fill="white" stoke="black"/>
<text x="1191.431396" y="565.000000">[Merge] Time: 1, Info: 2, From: 1
</text></g>
<rect class="task" x="1204.903442" y="580.000000" width="1.684002" height="120.000000" fill="yellow" stroke="black"/>
<g id="tip_42">
<rect x="1204.903442" y="550.000000" width="200" height="30.000000" fill="white" stoke="black"/>
<text x="1204.903442" y="565.000000">[Merge] Time: 2, Info: 4, From: 1
</text></g>
<rect class="task" x="1210.797485" y="580.000000" width="0.842001" height="120.000000" fill="yellow" stroke="black"/>
<g id="tip_43">
<rect x="1210.797485" y="550.000000" width="200" height="30.000000" fill="white" stoke="black"/>
<text x="1210.797485" y="565.000000">[Merge] Time: 1, Info: 2, From: 3
</text></g>
<rect class="task" x="1213.323486" y="580.000000" width="1.684002" height="120.000000" fill="yellow" stroke="black"/>
<g id="tip_44">
<rect x="1213.323486" y="550.000000" width="200" height="30.000000" fill="white" stoke="black"/>
<text x="1213.323486" y="565.000000">[Merge] Time: 2, Info: 4, From: 3
</text></g>
<rect class="task" x="1267.211548" y="580.000000" width="406.686493" height="120.000000" fill="yellow" stroke="black"/>
<g id="tip_45">
<rect x="1267.211548" y="550.000000" width="200" height="30.000000" fill="white" stoke="black"/>
<text x="1267.211548" y="565.000000">[Merge] Time: 483, Info: 16, From: 0
</text></g>
<script>
<![CDATA[
var tasks = document.getElementsByClassName('task');
for (var i = 0; i < tasks.length; i++) {
var tip = document.getElementById('tip_'+i);
tip.style.display='none';
tasks[i].tip = tip;
tasks[i].addEventListener('mouseover', mouseOverEffect);
tasks[i].addEventListener('mouseout', mouseOutEffect);}

function mouseOverEffect() {
this.classList.add("task-highlight");
this.tip.style.display='block';
}

function mouseOutEffect() {
this.classList.remove("task-highlight");
this.tip.style.display='none';
}
]]>
</script>
<style>.task-highlight {fill: #ec008c;opacity: 1;}</style>
</svg>