<?xml version="1.0"?>
<svg viewBox="0 0 2000 800" version="1.1" xmlns="http://www.w3.org/2000/svg">
<line x1="0.000000" y1="160.000000" x2="1700.000000" y2="160.000000" style="stroke:rgb(0,0,0);stroke-width:3"/>
<rect class="task" x="0.000000" y="100.000000" width="1667.225464" height="120.000000" fill="red" stroke="black"/>
<g id="tip_0">
<rect x="0.000000" y="70.000000" width="200" height="30.000000" fill="white" stoke="black"/>
<text x="0.000000" y="85.000000">[Start] Time: 1170, Info: 16</text>
</g>
<line x1="0.000000" y1="320.000000" x2="1700.000000" y2="320.000000" style="stroke:rgb(0,0,0);stroke-width:3"/>
<rect class="task" x="750.963928" y="260.000000" width="1.424979" height="120.000000" fill="blue" stroke="black"/>
<g id="tip_1">
<rect x="750.963928" y="230.000000" width="200" height="30.000000" fill="white" stoke="black"/>
<text x="750.963928" y="245.000000">[Sort] Time: 1, Info: 1</text>
</g>
<rect class="task" x="758.088867" y="260.000000" width="1.424979" height="120.000000" fill="blue" stroke="black"/>
<g id="tip_2">
<rect x="758.088867" y="230.000000" width="200" height="30.000000" fill="white" stoke="black"/>
<text x="758.088867" y="245.000000">[Sort] Time: 1, Info: 1</text>
</g>
<rect class="task" x="743.839050" y="260.000000" width="14.249790" height="120.000000" fill="blue" stroke="black"/>
<g id="tip_3">
<rect x="743.839050" y="230.000000" width="200" height="30.000000" fill="white" stoke="black"/>
<text x="743.839050" y="245.000000">[Sort] Time: 10, Info: 2</text>
</g>
<rect class="task" x="819.362976" y="260.000000" width="1.424979" height="120.000000" fill="blue" stroke="black"/>
<g id="tip_4">
<rect x="819.362976" y="230.000000" width="200" height="30.000000" fill="white" stoke="black"/>
<text x="819.362976" y="245.000000">[Sort] Time: 1, Info: 1</text>
</g>
<rect class="task" x="823.637878" y="260.000000" width="9.974854" height="120.000000" fill="blue" stroke="black"/>
<g id="tip_5">
<rect x="823.637878" y="230.000000" width="200" height="30.000000" fill="white" stoke="black"/>
<text x="823.637878" y="245.000000">[Sort] Time: 7, Info: 1</text>
</g>
<rect class="task" x="766.638733" y="260.000000" width="56.999161" height="120.000000" fill="blue" stroke="black"/>
<g id="tip_6">
<rect x="766.638733" y="230.000000" width="200" height="30.000000" fill="white" stoke="black"/>
<text x="766.638733" y="245.000000">[Sort] Time: 40, Info: 2</text>
</g>
<rect class="task" x="460.268219" y="260.000000" width="306.370483" height="120.000000" fill="blue" stroke="black"/>
<g id="tip_7">
<rect x="460.268219" y="230.000000" width="200" height="30.000000" fill="white" stoke="black"/>
<text x="460.268219" y="245.000000">[Sort] Time: 215, Info: 4</text>
</g>
<rect class="task" x="860.687317" y="260.000000" width="86.923721" height="120.000000" fill="blue" stroke="black"/>
<g id="tip_8">
<rect x="860.687317" y="230.000000" width="200" height="30.000000" fill="white" stoke="black"/>
<text x="860.687317" y="245.000000">[Merge] Time: 61, Info: 2</text>
</g>
<rect class="task" x="956.160950" y="260.000000" width="7.124895" height="120.000000" fill="blue" stroke="black"/>
<g id="tip_9">
<rect x="956.160950" y="230.000000" width="200" height="30.000000" fill="white" stoke="black"/>
<text x="956.160950" y="245.000000">[Merge] Time: 5, Info: 4</text>
</g>
<rect class="task" x="1060.184448" y="260.000000" width="5.699916" height="120.000000" fill="blue" stroke="black"/>
<g id="tip_10">
<rect x="1060.184448" y="230.000000" width="200" height="30.000000" fill="white" stoke="black"/>
<text x="1060.184448" y="245.000000">[Sort] Time: 4, Info: 1</text>
</g>
<rect class="task" x="1073.009277" y="260.000000" width="4.274937" height="120.000000" fill="blue" stroke="black"/>
<g id="tip_11">
<rect x="1073.009277" y="230.000000" width="200" height="30.000000" fill="white" stoke="black"/>
<text x="1073.009277" y="245.000000">[Sort] Time: 3, Info: 1</text>
</g>
<rect class="task" x="1037.384766" y="260.000000" width="35.624477" height="120.000000" fill="blue" stroke="black"/>
<g id="tip_12">
<rect x="1037.384766" y="230.000000" width="200" height="30.000000" fill="white" stoke="black"/>
<text x="1037.384766" y="245.000000">[Sort] Time: 25, Info: 2</text>
</g>
<rect class="task" x="1105.783691" y="260.000000" width="2.849958" height="120.000000" fill="blue" stroke="black"/>
<g id="tip_13">
<rect x="1105.783691" y="230.000000" width="200" height="30.000000" fill="white" stoke="black"/>
<text x="1105.783691" y="245.000000">[Sort] Time: 2, Info: 1</text>
</g>
<rect class="task" x="1114.333618" y="260.000000" width="4.274937" height="120.000000" fill="blue" stroke="black"/>
<g id="tip_14">
<rect x="1114.333618" y="230.000000" width="200" height="30.000000" fill="white" stoke="black"/>
<text x="1114.333618" y="245.000000">[Sort] Time: 3, Info: 1</text>
</g>
<rect class="task" x="1092.958984" y="260.000000" width="21.374685" height="120.000000" fill="blue" stroke="black"/>
<g id="tip_15">
<rect x="1092.958984" y="230.000000" width="200" height="30.000000" fill="white" stoke="black"/>
<text x="1092.958984" y="245.000000">[Sort] Time: 15, Info: 2</text>
</g>
<rect class="task" x="990.360413" y="260.000000" width="102.598488" height="120.000000" fill="blue" stroke="black"/>
<g id="tip_16">
<rect x="990.360413" y="230.000000" width="200" height="30.000000" fill="white" stoke="black"/>
<text x="990.360413" y="245.000000">[Sort] Time: 72, Info: 4</text>
</g>
<rect class="task" x="1695.725098" y="260.000000" width="4.274937" height="120.000000" fill="blue" stroke="black"/>
<g id="tip_17">
<rect x="1695.725098" y="230.000000" width="200" height="30.000000" fill="white" stoke="black"/>
<text x="1695.725098" y="245.000000">[Merge] Time: 3, Info: 16</text>
</g>
<line x1="0.000000" y1="480.000000" x2="1700.000000" y2="480.000000" style="stroke:rgb(0,0,0);stroke-width:3"/>
<rect class="task" x="845.012573" y="420.000000" width="1.424979" height="120.000000" fill="green" stroke="black"/>
<g id="tip_18">
<rect x="845.012573" y="390.000000" width="200" height="30.000000" fill="white" stoke="black"/>
<text x="845.012573" y="405.000000">[Sort] Time: 1, Info: 1</text>
</g>
<rect class="task" x="854.987427" y="420.000000" width="1.424979" height="120.000000" fill="green" stroke="black"/>
<g id="tip_19">
<rect x="854.987427" y="390.000000" width="200" height="30.000000" fill="white" stoke="black"/>
<text x="854.987427" y="405.000000">[Sort] Time: 1, Info: 1</text>
</g>
<rect class="task" x="830.762756" y="420.000000" width="24.224644" height="120.000000" fill="green" stroke="black"/>
<g id="tip_20">
<rect x="830.762756" y="390.000000" width="200" height="30.000000" fill="white" stoke="black"/>
<text x="830.762756" y="405.000000">[Sort] Time: 17, Info: 2</text>
</g>
<rect class="task" x="990.360413" y="420.000000" width="5.699916" height="120.000000" fill="green" stroke="black"/>
<g id="tip_21">
<rect x="990.360413" y="390.000000" width="200" height="30.000000" fill="white" stoke="black"/>
<text x="990.360413" y="405.000000">[Sort] Time: 4, Info: 1</text>
</g>
<rect class="task" x="998.910339" y="420.000000" width="1.424979" height="120.000000" fill="green" stroke="black"/>
<g id="tip_22">
<rect x="998.910339" y="390.000000" width="200" height="30.000000" fill="white" stoke="black"/>
<text x="998.910339" y="405.000000">[Sort] Time: 1, Info: 1</text>
</g>
<rect class="task" x="937.636230" y="420.000000" width="61.274097" height="120.000000" fill="green" stroke="black"/>
<g id="tip_23">
<rect x="937.636230" y="390.000000" width="200" height="30.000000" fill="white" stoke="black"/>
<text x="937.636230" y="405.000000">[Sort] Time: 43, Info: 2</text>
</g>
<rect class="task" x="812.238037" y="420.000000" width="125.398155" height="120.000000" fill="green" stroke="black"/>
<g id="tip_24">
<rect x="812.238037" y="390.000000" width="200" height="30.000000" fill="white" stoke="black"/>
<text x="812.238037" y="405.000000">[Sort] Time: 88, Info: 4</text>
</g>
<rect class="task" x="145.347870" y="420.000000" width="666.890198" height="120.000000" fill="green" stroke="black"/>
<g id="tip_25">
<rect x="145.347870" y="390.000000" width="200" height="30.000000" fill="white" stoke="black"/>
<text x="145.347870" y="405.000000">[Sort] Time: 468, Info: 8</text>
</g>
<line x1="0.000000" y1="640.000000" x2="1700.000000" y2="640.000000" style="stroke:rgb(0,0,0);stroke-width:3"/>
<rect class="task" x="465.968140" y="580.000000" width="1.424979" height="120.000000" fill="yellow" stroke="black"/>
<g id="tip_26">
<rect x="465.968140" y="550.000000" width="200" height="30.000000" fill="white" stoke="black"/>
<text x="465.968140" y="565.000000">[Sort] Time: 1, Info: 1</text>
</g>
<rect class="task" x="473.093048" y="580.000000" width="2.849958" height="120.000000" fill="yellow" stroke="black"/>
<g id="tip_27">
<rect x="473.093048" y="550.000000" width="200" height="30.000000" fill="white" stoke="black"/>
<text x="473.093048" y="565.000000">[Sort] Time: 2, Info: 1</text>
</g>
<rect class="task" x="460.268219" y="580.000000" width="12.824811" height="120.000000" fill="yellow" stroke="black"/>
<g id="tip_28">
<rect x="460.268219" y="550.000000" width="200" height="30.000000" fill="white" stoke="black"/>
<text x="460.268219" y="565.000000">[Sort] Time: 9, Info: 2</text>
</g>
<rect class="task" x="682.564941" y="580.000000" width="2.849958" height="120.000000" fill="yellow" stroke="black"/>
<g id="tip_29">
<rect x="682.564941" y="550.000000" width="200" height="30.000000" fill="white" stoke="black"/>
<text x="682.564941" y="565.000000">[Sort] Time: 2, Info: 1</text>
</g>
<rect class="task" x="688.264893" y="580.000000" width="2.849958" height="120.000000" fill="yellow" stroke="black"/>
<g id="tip_30">
<rect x="688.264893" y="550.000000" width="200" height="30.000000" fill="white" stoke="black"/>
<text x="688.264893" y="565.000000">[Sort] Time: 2, Info: 1</text>
</g>
<rect class="task" x="484.492889" y="580.000000" width="203.772003" height="120.000000" fill="yellow" stroke="black"/>
<g id="tip_31">
<rect x="484.492889" y="550.000000" width="200" height="30.000000" fill="white" stoke="black"/>
<text x="484.492889" y="565.000000">[Sort] Time: 143, Info: 2</text>
</g>
<rect class="task" x="242.246445" y="580.000000" width="242.246445" height="120.000000" fill="yellow" stroke="black"/>
<g id="tip_32">
<rect x="242.246445" y="550.000000" width="200" height="30.000000" fill="white" stoke="black"/>
<text x="242.246445" y="565.000000">[Sort] Time: 170, Info: 4</text>
</g>
<rect class="task" x="39.899414" y="580.000000" width="202.347031" height="120.000000" fill="yellow" stroke="black"/>
<g id="tip_33">
<rect x="39.899414" y="550.000000" width="200" height="30.000000" fill="white" stoke="black"/>
<text x="39.899414" y="565.000000">[Sort] Time: 142, Info: 8</text>
</g>
<rect class="task" x="937.636230" y="580.000000" width="12.824811" height="120.000000" fill="yellow" stroke="black"/>
<g id="tip_34">
<rect x="937.636230" y="550.000000" width="200" height="30.000000" fill="white" stoke="black"/>
<text x="937.636230" y="565.000000">[Merge] Time: 9, Info: 2</text>
</g>
<rect class="task" x="960.435852" y="580.000000" width="5.699916" height="120.000000" fill="yellow" stroke="black"/>
<g id="tip_35">
<rect x="960.435852" y="550.000000" width="200" height="30.000000" fill="white" stoke="black"/>
<text x="960.435852" y="565.000000">[Merge] Time: 4, Info: 2</text>
</g>
<rect class="task" x="984.660522" y="580.000000" width="11.399833" height="120.000000" fill="yellow" stroke="black"/>
<g id="tip_36">
<rect x="984.660522" y="550.000000" width="200" height="30.000000" fill="white" stoke="black"/>
<text x="984.660522" y="565.000000">[Merge] Time: 8, Info: 2</text>
</g>
<rect class="task" x="1045.934570" y="580.000000" width="4.274937" height="120.000000" fill="yellow" stroke="black"/>
<g id="tip_37">
<rect x="1045.934570" y="550.000000" width="200" height="30.000000" fill="white" stoke="black"/>
<text x="1045.934570" y="565.000000">[Merge] Time: 3, Info: 4</text>
</g>
<rect class="task" x="1065.884277" y="580.000000" width="2.849958" height="120.000000" fill="yellow" stroke="black"/>
<g id="tip_38">
<rect x="1065.884277" y="550.000000" width="200" height="30.000000" fill="white" stoke="black"/>
<text x="1065.884277" y="565.000000">[Merge] Time: 2, Info: 8</text>
</g>
<rect class="task" x="1077.284180" y="580.000000" width="2.849958" height="120.000000" fill="yellow" stroke="black"/>
<g id="tip_39">
<rect x="1077.284180" y="550.000000" width="200" height="30.000000" fill="white" stoke="black"/>
<text x="1077.284180" y="565.000000">[Merge] Time: 2, Info: 2</text>
</g>
<rect class="task" x="1088.683960" y="580.000000" width="5.699916" height="120.000000" fill="yellow" stroke="black"/>
<g id="tip_40">
<rect x="1088.683960" y="550.000000" width="200" height="30.000000" fill="white" stoke="black"/>
<text x="1088.683960" y="565.000000">[Merge] Time: 4, Info: 2</text>
</g>
<rect class="task" x="1097.233887" y="580.000000" width="8.549874" height="120.000000" fill="yellow" stroke="black"/>
<g id="tip_41">
<rect x="1097.233887" y="550.000000" width="200" height="30.000000" fill="white" stoke="black"/>
<text x="1097.233887" y="565.000000">[Merge] Time: 6, Info: 4</text>
</g>
<rect class="task" x="1111.483643" y="580.000000" width="5.699916" height="120.000000" fill="yellow" stroke="black"/>
<g id="tip_42">
<rect x="1111.483643" y="550.000000" width="200" height="30.000000" fill="white" stoke="black"/>
<text x="1111.483643" y="565.000000">[Merge] Time: 4, Info: 2</text>
</g>
<rect class="task" x="1125.733398" y="580.000000" width="7.124895" height="120.000000" fill="yellow" stroke="black"/>
<g id="tip_43">
<rect x="1125.733398" y="550.000000" width="200" height="30.000000" fill="white" stoke="black"/>
<text x="1125.733398" y="565.000000">[Merge] Time: 5, Info: 2</text>
</g>
<rect class="task" x="1144.258179" y="580.000000" width="17.099749" height="120.000000" fill="yellow" stroke="black"/>
<g id="tip_44">
<rect x="1144.258179" y="550.000000" width="200" height="30.000000" fill="white" stoke="black"/>
<text x="1144.258179" y="565.000000">[Merge] Time: 12, Info: 4</text>
</g>
<rect class="task" x="1171.332764" y="580.000000" width="78.373848" height="120.000000" fill="yellow" stroke="black"/>
<g id="tip_45">
<rect x="1171.332764" y="550.000000" width="200" height="30.000000" fill="white" stoke="black"/>
<text x="1171.332764" y="565.000000">[Merge] Time: 55, Info: 8</text>
</g>
<script>
<![CDATA[
var tasks = document.getElementsByClassName('task');
for (var i = 0; i < tasks.length; i++) {
var tip = document.getElementById('tip_'+i);
tip.style.display='none';
tasks[i].tip = tip;
tasks[i].addEventListener('mouseover', mouseOverEffect);
tasks[i].addEventListener('mouseout', mouseOutEffect);}

function mouseOverEffect() {
this.classList.add("task-highlight");
this.tip.style.display='block';
}

function mouseOutEffect() {
this.classList.remove("task-highlight");
this.tip.style.display='none';
}
]]>
</script>
<style>.task-highlight {fill: #ec008c;opacity: 1;}</style>
</svg>