<?xml version="1.0"?>
<svg viewBox="0 0 2000 800" version="1.1" xmlns="http://www.w3.org/2000/svg">
<line x1="0.000000" y1="160.000000" x2="1700.000000" y2="160.000000" style="stroke:rgb(0,0,0);stroke-width:3"/>
<text x="1850.000000" y="160.000000" fill="black">Thread 0</text>
<rect class="task" x="0.000000" y="100.000000" width="1695.321899" height="120.000000" fill="red" stroke="black"/>
<g id="tip_0">
<rect x="0.000000" y="70.000000" width="200" height="30.000000" fill="white" stoke="black"/>
<text x="0.000000" y="85.000000">[Start] Time: 1812, Info: 16</text>
</g>
<line x1="0.000000" y1="320.000000" x2="1700.000000" y2="320.000000" style="stroke:rgb(0,0,0);stroke-width:3"/>
<text x="1850.000000" y="320.000000" fill="black">Thread 1</text>
<rect class="task" x="716.675842" y="260.000000" width="14.034122" height="120.000000" fill="blue" stroke="black"/>
<g id="tip_1">
<rect x="716.675842" y="230.000000" width="200" height="30.000000" fill="white" stoke="black"/>
<text x="716.675842" y="245.000000">[Sort] Time: 15, Info: 1</text>
</g>
<rect class="task" x="736.323608" y="260.000000" width="12.162906" height="120.000000" fill="blue" stroke="black"/>
<g id="tip_2">
<rect x="736.323608" y="230.000000" width="200" height="30.000000" fill="white" stoke="black"/>
<text x="736.323608" y="245.000000">[Sort] Time: 13, Info: 1</text>
</g>
<rect class="task" x="659.603760" y="260.000000" width="76.719872" height="120.000000" fill="blue" stroke="black"/>
<g id="tip_3">
<rect x="659.603760" y="230.000000" width="200" height="30.000000" fill="white" stoke="black"/>
<text x="659.603760" y="245.000000">[Sort] Time: 82, Info: 2</text>
</g>
<rect class="task" x="793.395691" y="260.000000" width="2.806824" height="120.000000" fill="blue" stroke="black"/>
<g id="tip_4">
<rect x="793.395691" y="230.000000" width="200" height="30.000000" fill="white" stoke="black"/>
<text x="793.395691" y="245.000000">[Sort] Time: 3, Info: 1</text>
</g>
<rect class="task" x="800.880554" y="260.000000" width="2.806824" height="120.000000" fill="blue" stroke="black"/>
<g id="tip_5">
<rect x="800.880554" y="230.000000" width="200" height="30.000000" fill="white" stoke="black"/>
<text x="800.880554" y="245.000000">[Sort] Time: 3, Info: 1</text>
</g>
<rect class="task" x="770.941101" y="260.000000" width="29.939461" height="120.000000" fill="blue" stroke="black"/>
<g id="tip_6">
<rect x="770.941101" y="230.000000" width="200" height="30.000000" fill="white" stoke="black"/>
<text x="770.941101" y="245.000000">[Sort] Time: 32, Info: 2</text>
</g>
<rect class="task" x="348.981842" y="260.000000" width="421.959259" height="120.000000" fill="blue" stroke="black"/>
<g id="tip_7">
<rect x="348.981842" y="230.000000" width="200" height="30.000000" fill="white" stoke="black"/>
<text x="348.981842" y="245.000000">[Sort] Time: 451, Info: 4</text>
</g>
<rect class="task" x="855.145874" y="260.000000" width="122.564667" height="120.000000" fill="blue" stroke="black"/>
<g id="tip_8">
<rect x="855.145874" y="230.000000" width="200" height="30.000000" fill="white" stoke="black"/>
<text x="855.145874" y="245.000000">[Merge] Time: 131, Info: 2</text>
</g>
<rect class="task" x="1057.237183" y="260.000000" width="4.678041" height="120.000000" fill="blue" stroke="black"/>
<g id="tip_9">
<rect x="1057.237183" y="230.000000" width="200" height="30.000000" fill="white" stoke="black"/>
<text x="1057.237183" y="245.000000">[Sort] Time: 5, Info: 1</text>
</g>
<rect class="task" x="1072.206909" y="260.000000" width="8.420473" height="120.000000" fill="blue" stroke="black"/>
<g id="tip_10">
<rect x="1072.206909" y="230.000000" width="200" height="30.000000" fill="white" stoke="black"/>
<text x="1072.206909" y="245.000000">[Sort] Time: 9, Info: 1</text>
</g>
<rect class="task" x="1031.975830" y="260.000000" width="40.231152" height="120.000000" fill="blue" stroke="black"/>
<g id="tip_11">
<rect x="1031.975830" y="230.000000" width="200" height="30.000000" fill="white" stoke="black"/>
<text x="1031.975830" y="245.000000">[Sort] Time: 43, Info: 2</text>
</g>
<rect class="task" x="1121.794189" y="260.000000" width="2.806824" height="120.000000" fill="blue" stroke="black"/>
<g id="tip_12">
<rect x="1121.794189" y="230.000000" width="200" height="30.000000" fill="white" stoke="black"/>
<text x="1121.794189" y="245.000000">[Sort] Time: 3, Info: 1</text>
</g>
<rect class="task" x="1104.953247" y="260.000000" width="16.840946" height="120.000000" fill="blue" stroke="black"/>
<g id="tip_13">
<rect x="1104.953247" y="230.000000" width="200" height="30.000000" fill="white" stoke="black"/>
<text x="1104.953247" y="245.000000">[Sort] Time: 18, Info: 2</text>
</g>
<rect class="task" x="993.615845" y="260.000000" width="111.337372" height="120.000000" fill="blue" stroke="black"/>
<g id="tip_14">
<rect x="993.615845" y="230.000000" width="200" height="30.000000" fill="white" stoke="black"/>
<text x="993.615845" y="245.000000">[Sort] Time: 119, Info: 4</text>
</g>
<rect class="task" x="1695.321899" y="260.000000" width="4.678041" height="120.000000" fill="blue" stroke="black"/>
<g id="tip_15">
<rect x="1695.321899" y="230.000000" width="200" height="30.000000" fill="white" stoke="black"/>
<text x="1695.321899" y="245.000000">[Merge] Time: 5, Info: 16</text>
</g>
<line x1="0.000000" y1="480.000000" x2="1700.000000" y2="480.000000" style="stroke:rgb(0,0,0);stroke-width:3"/>
<text x="1850.000000" y="480.000000" fill="black">Thread 2</text>
<rect class="task" x="745.679688" y="420.000000" width="5.613649" height="120.000000" fill="green" stroke="black"/>
<g id="tip_16">
<rect x="745.679688" y="390.000000" width="200" height="30.000000" fill="white" stoke="black"/>
<text x="745.679688" y="405.000000">[Sort] Time: 6, Info: 1</text>
</g>
<rect class="task" x="755.971375" y="420.000000" width="11.227298" height="120.000000" fill="green" stroke="black"/>
<g id="tip_17">
<rect x="755.971375" y="390.000000" width="200" height="30.000000" fill="white" stoke="black"/>
<text x="755.971375" y="405.000000">[Sort] Time: 12, Info: 1</text>
</g>
<rect class="task" x="727.903137" y="420.000000" width="28.068245" height="120.000000" fill="green" stroke="black"/>
<g id="tip_18">
<rect x="727.903137" y="390.000000" width="200" height="30.000000" fill="white" stoke="black"/>
<text x="727.903137" y="405.000000">[Sort] Time: 30, Info: 2</text>
</g>
<rect class="task" x="829.884399" y="420.000000" width="3.742433" height="120.000000" fill="green" stroke="black"/>
<g id="tip_19">
<rect x="829.884399" y="390.000000" width="200" height="30.000000" fill="white" stoke="black"/>
<text x="829.884399" y="405.000000">[Sort] Time: 4, Info: 1</text>
</g>
<rect class="task" x="844.854126" y="420.000000" width="2.806824" height="120.000000" fill="green" stroke="black"/>
<g id="tip_20">
<rect x="844.854126" y="390.000000" width="200" height="30.000000" fill="white" stoke="black"/>
<text x="844.854126" y="405.000000">[Sort] Time: 3, Info: 1</text>
</g>
<rect class="task" x="784.039612" y="420.000000" width="60.814529" height="120.000000" fill="green" stroke="black"/>
<g id="tip_21">
<rect x="784.039612" y="390.000000" width="200" height="30.000000" fill="white" stoke="black"/>
<text x="784.039612" y="405.000000">[Sort] Time: 65, Info: 2</text>
</g>
<rect class="task" x="705.448547" y="420.000000" width="78.591087" height="120.000000" fill="green" stroke="black"/>
<g id="tip_22">
<rect x="705.448547" y="390.000000" width="200" height="30.000000" fill="white" stoke="black"/>
<text x="705.448547" y="405.000000">[Sort] Time: 84, Info: 4</text>
</g>
<rect class="task" x="130.049530" y="420.000000" width="575.398987" height="120.000000" fill="green" stroke="black"/>
<g id="tip_23">
<rect x="130.049530" y="390.000000" width="200" height="30.000000" fill="white" stoke="black"/>
<text x="130.049530" y="405.000000">[Sort] Time: 615, Info: 8</text>
</g>
<line x1="0.000000" y1="640.000000" x2="1700.000000" y2="640.000000" style="stroke:rgb(0,0,0);stroke-width:3"/>
<text x="1850.000000" y="640.000000" fill="black">Thread 3</text>
<rect class="task" x="427.572937" y="580.000000" width="1.871216" height="120.000000" fill="yellow" stroke="black"/>
<g id="tip_24">
<rect x="427.572937" y="550.000000" width="200" height="30.000000" fill="white" stoke="black"/>
<text x="427.572937" y="565.000000">[Sort] Time: 2, Info: 1</text>
</g>
<rect class="task" x="435.057800" y="580.000000" width="1.871216" height="120.000000" fill="yellow" stroke="black"/>
<g id="tip_25">
<rect x="435.057800" y="550.000000" width="200" height="30.000000" fill="white" stoke="black"/>
<text x="435.057800" y="565.000000">[Sort] Time: 2, Info: 1</text>
</g>
<rect class="task" x="421.959259" y="580.000000" width="13.098514" height="120.000000" fill="yellow" stroke="black"/>
<g id="tip_26">
<rect x="421.959259" y="550.000000" width="200" height="30.000000" fill="white" stoke="black"/>
<text x="421.959259" y="565.000000">[Sort] Time: 14, Info: 2</text>
</g>
<rect class="task" x="528.618591" y="580.000000" width="2.806824" height="120.000000" fill="yellow" stroke="black"/>
<g id="tip_27">
<rect x="528.618591" y="550.000000" width="200" height="30.000000" fill="white" stoke="black"/>
<text x="528.618591" y="565.000000">[Sort] Time: 3, Info: 1</text>
</g>
<rect class="task" x="534.232239" y="580.000000" width="1.871216" height="120.000000" fill="yellow" stroke="black"/>
<g id="tip_28">
<rect x="534.232239" y="550.000000" width="200" height="30.000000" fill="white" stoke="black"/>
<text x="534.232239" y="565.000000">[Sort] Time: 2, Info: 1</text>
</g>
<rect class="task" x="444.413879" y="580.000000" width="89.818382" height="120.000000" fill="yellow" stroke="black"/>
<g id="tip_29">
<rect x="444.413879" y="550.000000" width="200" height="30.000000" fill="white" stoke="black"/>
<text x="444.413879" y="565.000000">[Sort] Time: 96, Info: 2</text>
</g>
<rect class="task" x="415.410004" y="580.000000" width="29.003853" height="120.000000" fill="yellow" stroke="black"/>
<g id="tip_30">
<rect x="415.410004" y="550.000000" width="200" height="30.000000" fill="white" stoke="black"/>
<text x="415.410004" y="565.000000">[Sort] Time: 31, Info: 4</text>
</g>
<rect class="task" x="33.681892" y="580.000000" width="381.728119" height="120.000000" fill="yellow" stroke="black"/>
<g id="tip_31">
<rect x="33.681892" y="550.000000" width="200" height="30.000000" fill="white" stoke="black"/>
<text x="33.681892" y="565.000000">[Sort] Time: 408, Info: 8</text>
</g>
<rect class="task" x="961.805176" y="580.000000" width="15.905338" height="120.000000" fill="yellow" stroke="black"/>
<g id="tip_32">
<rect x="961.805176" y="550.000000" width="200" height="30.000000" fill="white" stoke="black"/>
<text x="961.805176" y="565.000000">[Merge] Time: 17, Info: 2</text>
</g>
<rect class="task" x="988.002197" y="580.000000" width="8.420473" height="120.000000" fill="yellow" stroke="black"/>
<g id="tip_33">
<rect x="988.002197" y="550.000000" width="200" height="30.000000" fill="white" stoke="black"/>
<text x="988.002197" y="565.000000">[Merge] Time: 9, Info: 4</text>
</g>
<rect class="task" x="1000.165100" y="580.000000" width="1.871216" height="120.000000" fill="yellow" stroke="black"/>
<g id="tip_34">
<rect x="1000.165100" y="550.000000" width="200" height="30.000000" fill="white" stoke="black"/>
<text x="1000.165100" y="565.000000">[Merge] Time: 2, Info: 2</text>
</g>
<rect class="task" x="1040.396240" y="580.000000" width="2.806824" height="120.000000" fill="yellow" stroke="black"/>
<g id="tip_35">
<rect x="1040.396240" y="550.000000" width="200" height="30.000000" fill="white" stoke="black"/>
<text x="1040.396240" y="565.000000">[Merge] Time: 3, Info: 2</text>
</g>
<rect class="task" x="1046.945557" y="580.000000" width="12.162906" height="120.000000" fill="yellow" stroke="black"/>
<g id="tip_36">
<rect x="1046.945557" y="550.000000" width="200" height="30.000000" fill="white" stoke="black"/>
<text x="1046.945557" y="565.000000">[Merge] Time: 13, Info: 2</text>
</g>
<rect class="task" x="1064.722046" y="580.000000" width="1.871216" height="120.000000" fill="yellow" stroke="black"/>
<g id="tip_37">
<rect x="1064.722046" y="550.000000" width="200" height="30.000000" fill="white" stoke="black"/>
<text x="1064.722046" y="565.000000">[Merge] Time: 2, Info: 4</text>
</g>
<rect class="task" x="1075.949341" y="580.000000" width="4.678041" height="120.000000" fill="yellow" stroke="black"/>
<g id="tip_38">
<rect x="1075.949341" y="550.000000" width="200" height="30.000000" fill="white" stoke="black"/>
<text x="1075.949341" y="565.000000">[Merge] Time: 5, Info: 8</text>
</g>
<rect class="task" x="1083.434204" y="580.000000" width="1.871216" height="120.000000" fill="yellow" stroke="black"/>
<g id="tip_39">
<rect x="1083.434204" y="550.000000" width="200" height="30.000000" fill="white" stoke="black"/>
<text x="1083.434204" y="565.000000">[Merge] Time: 2, Info: 2</text>
</g>
<rect class="task" x="1088.112305" y="580.000000" width="9.356081" height="120.000000" fill="yellow" stroke="black"/>
<g id="tip_40">
<rect x="1088.112305" y="550.000000" width="200" height="30.000000" fill="white" stoke="black"/>
<text x="1088.112305" y="565.000000">[Merge] Time: 10, Info: 4</text>
</g>
<rect class="task" x="1104.953247" y="580.000000" width="2.806824" height="120.000000" fill="yellow" stroke="black"/>
<g id="tip_41">
<rect x="1104.953247" y="550.000000" width="200" height="30.000000" fill="white" stoke="black"/>
<text x="1104.953247" y="565.000000">[Merge] Time: 3, Info: 2</text>
</g>
<rect class="task" x="1110.566895" y="580.000000" width="1.871216" height="120.000000" fill="yellow" stroke="black"/>
<g id="tip_42">
<rect x="1110.566895" y="550.000000" width="200" height="30.000000" fill="white" stoke="black"/>
<text x="1110.566895" y="565.000000">[Sort] Time: 2, Info: 1</text>
</g>
<rect class="task" x="1134.892700" y="580.000000" width="9.356081" height="120.000000" fill="yellow" stroke="black"/>
<g id="tip_43">
<rect x="1134.892700" y="550.000000" width="200" height="30.000000" fill="white" stoke="black"/>
<text x="1134.892700" y="565.000000">[Merge] Time: 10, Info: 2</text>
</g>
<rect class="task" x="1151.733643" y="580.000000" width="11.227298" height="120.000000" fill="yellow" stroke="black"/>
<g id="tip_44">
<rect x="1151.733643" y="550.000000" width="200" height="30.000000" fill="white" stoke="black"/>
<text x="1151.733643" y="565.000000">[Merge] Time: 12, Info: 4</text>
</g>
<rect class="task" x="1172.317017" y="580.000000" width="105.723717" height="120.000000" fill="yellow" stroke="black"/>
<g id="tip_45">
<rect x="1172.317017" y="550.000000" width="200" height="30.000000" fill="white" stoke="black"/>
<text x="1172.317017" y="565.000000">[Merge] Time: 113, Info: 8</text>
</g>
<script>
<![CDATA[
var tasks = document.getElementsByClassName('task');
for (var i = 0; i < tasks.length; i++) {
var tip = document.getElementById('tip_'+i);
tip.style.display='none';
tasks[i].tip = tip;
tasks[i].addEventListener('mouseover', mouseOverEffect);
tasks[i].addEventListener('mouseout', mouseOutEffect);}

function mouseOverEffect() {
this.classList.add("task-highlight");
this.tip.style.display='block';
}

function mouseOutEffect() {
this.classList.remove("task-highlight");
this.tip.style.display='none';
}
]]>
</script>
<style>.task-highlight {fill: #ec008c;opacity: 1;}</style>
</svg>